<svg width="924" height="370" viewBox="0 0 924 370" fill="none" xmlns="http://www.w3.org/2000/svg">
<path d="M119.36 80.6938C54.2546 80.6938 0 108.318 0 191.651C0 257.667 36.4828 299.243 121.041 299.243C220.575 299.243 226.954 233.679 226.954 233.679H178.725C178.725 233.679 168.389 268.979 118.1 268.979C77.1437 268.979 47.6841 241.312 47.6841 202.535H232.001V178.199C232.001 139.835 207.646 80.6907 119.363 80.6907L119.36 80.6938ZM117.678 111.798C156.668 111.798 183.245 135.681 183.245 171.48H48.7556C48.7556 133.477 83.4433 111.798 117.678 111.798Z" fill="#E53238"/>
<path d="M231.964 0V257.393C231.964 272.003 230.92 292.518 230.92 292.518H276.92C276.92 292.518 278.57 277.785 278.57 264.318C278.57 264.318 301.296 299.874 363.091 299.874C428.165 299.874 472.364 254.696 472.364 189.97C472.364 129.754 431.765 81.325 363.196 81.325C298.987 81.325 279.035 115.997 279.035 115.997V0H231.964ZM351.323 113.162C395.513 113.162 423.612 145.959 423.612 189.97C423.612 237.161 391.159 268.037 351.641 268.037C304.477 268.037 279.035 231.213 279.035 190.388C279.035 152.351 301.863 113.162 351.323 113.162Z" fill="#0064D2"/>
<path d="M586.683 80.6938C488.735 80.6938 482.454 134.33 482.454 142.898H531.206C531.206 142.898 533.762 111.585 583.321 111.585C615.527 111.585 640.479 126.327 640.479 154.666V164.753H583.321C507.44 164.753 467.324 186.952 467.324 231.998C467.324 276.329 504.389 300.453 554.48 300.453C622.744 300.453 644.734 262.732 644.734 262.732C644.734 277.733 645.892 292.518 645.892 292.518H689.232C689.232 292.518 687.551 274.192 687.551 262.467V161.126C687.551 94.6816 633.955 80.6938 586.683 80.6938ZM640.479 195.013V208.462C640.479 226.003 629.657 269.611 565.931 269.611C531.037 269.611 516.076 252.199 516.076 231.998C516.076 195.25 566.461 195.013 640.479 195.013Z" fill="#F5AF02"/>
<path d="M661.299 89.1086H716.145L794.859 246.805L873.395 89.1086H923.077L780.028 369.859H727.916L769.193 291.597L661.299 89.1086Z" fill="#86B817"/>
</svg>
