<svg width="721" height="290" viewBox="0 0 721 290" fill="none" xmlns="http://www.w3.org/2000/svg">
<mask id="mask0_107_82" style="mask-type:luminance" maskUnits="userSpaceOnUse" x="0" y="0" width="721" height="290">
<path d="M0 0V59.8435H40.3309V230.001H1.09809V289.123H141.442V230.001H101.11V59.8435H140.343V0H0ZM399.452 0.721006V59.8435H439.783V230.001H400.55V289.123H500.561V124.619L560.157 289.066L561.368 289.094L619.893 124.619V289.123H721V230.001H680.668V59.8435H719.902V0.721006H607.187L560.519 132.586L513.259 0.721006H399.452Z" fill="white"/>
<path d="M160.229 0.721008V59.8435H200.56V153.574H355.8V135.601C355.8 135.601 368.786 125.477 372.924 115.869L381.232 97.2276C381.232 97.2276 385.091 86.7932 385.091 77.4685L383.429 58.8269C383.429 58.8269 380.821 43.6403 376.275 39.1232L360.221 20.4528C360.221 20.4528 339.793 0.721008 312.736 0.721008H160.229ZM261.336 59.8435H320.452V114.64H261.336V59.8435Z" fill="white"/>
<path d="M160.229 289.123V230.001H200.56V136.27H355.8V154.243C355.8 154.243 368.786 164.368 372.924 173.975L381.232 192.617C381.232 192.617 385.091 203.051 385.091 212.376L383.429 231.017C383.429 231.017 380.821 246.204 376.275 250.721L360.221 269.392C360.221 269.392 339.793 289.123 312.736 289.123H160.229ZM261.336 230.001H320.452V175.204H261.336V230.001Z" fill="white"/>
</mask>
<g mask="url(#mask0_107_82)">
<path d="M0 10.5866H742.636V48.9672H0M0 87.3478H702.981V125.736H0V164.109H702.981V202.482H0M0 240.87H742.636V279.258H0" stroke="#1F70C1" stroke-width="25.2648"/>
</g>
</svg>
