<svg width="1349" height="165" viewBox="0 0 1349 165" fill="none" xmlns="http://www.w3.org/2000/svg">
<path d="M122.118 101.087H31.8864V78.6982H148.238C145.185 69.2002 135.347 60.3805 118.047 60.3805H33.5824C14.2471 60.3805 3.05295 67.5041 3.05295 83.108V99.7296C3.05295 113.298 14.5863 121.1 31.5471 121.1H122.796V144.845H0C3.05295 157.736 12.8902 164.52 30.5295 164.52H122.457C141.792 164.52 151.291 157.057 151.291 141.114V124.492C151.291 109.906 140.096 102.104 122.118 101.087ZM306.313 60.7197H195.049V164.859H226.597V124.832H308.687C331.415 124.832 343.966 117.03 343.966 98.712V87.1786C343.626 70.2178 329.379 60.7197 306.313 60.7197ZM316.489 93.963C316.489 101.426 315.132 105.496 302.92 105.496H226.597L226.936 78.359H301.563C315.132 78.359 316.828 82.4296 316.828 89.5532V93.963H316.489ZM448.783 124.153H381.619L364.997 141.792H462.013L478.635 164.859H515.948L435.554 56.3099L416.558 79.7159L448.783 124.153ZM576.329 78.6982H694.376C691.323 66.4864 679.451 60.3805 662.49 60.3805H574.294C559.029 60.3805 544.443 66.4864 544.443 83.108V141.453C544.443 158.075 559.029 164.181 574.294 164.181H663.508C683.861 164.181 690.984 158.414 694.376 144.506H576.329V78.6982ZM832.777 113.298V95.6591H737.457V164.859H878.232V145.185H769.343V113.298H832.777ZM740.849 60.7197H882.981V79.0374H740.849V60.7197ZM970.498 60.7197H920.973L979.318 103.461C987.799 97.6944 997.636 91.5885 1006.46 86.5002L970.498 60.7197ZM1042.41 113.977C1033.93 119.743 1025.45 126.189 1017.31 132.294L1061.41 164.52H1111.27L1042.41 113.977Z" fill="black"/>
<path d="M1348.39 0C1077.01 15.604 951.503 131.616 923.348 159.093L917.581 164.52H967.785C1103.47 28.4942 1298.52 4.40981 1348.39 0Z" fill="black"/>
</svg>
